<mxfile host="Electron" agent="Mozilla/5.0 (Windows NT 10.0; Win64; x64) AppleWebKit/537.36 (KHTML, like Gecko) draw.io/24.7.17 Chrome/128.0.6613.36 Electron/32.0.1 Safari/537.36" version="24.7.17">
  <diagram id="1dmdS3GdRMEdE-Z9J1JC" name="Страница 1">
    <mxGraphModel dx="1404" dy="814" grid="1" gridSize="10" guides="1" tooltips="1" connect="1" arrows="1" fold="1" page="1" pageScale="1" pageWidth="827" pageHeight="1169" math="0" shadow="1">
      <root>
        <mxCell id="0" />
        <mxCell id="1" parent="0" />
        <mxCell id="A6qeI73UASJIK5Bc831--129" value="&lt;p style=&quot;line-height: 120%;&quot;&gt;&lt;i style=&quot;&quot;&gt;&lt;font style=&quot;font-size: 12px;&quot;&gt;Here is a scheme of module_menu&lt;/font&gt;&lt;/i&gt;&lt;/p&gt;" style="ellipse;shape=cloud;whiteSpace=wrap;html=1;shadow=1;strokeColor=#A8A4A4;fillColor=default;fillStyle=auto;" parent="1" vertex="1">
          <mxGeometry x="160" y="59.99999999999994" width="270" height="60" as="geometry" />
        </mxCell>
        <mxCell id="A6qeI73UASJIK5Bc831--136" value="poetry_table" style="shape=table;startSize=30;container=1;collapsible=0;childLayout=tableLayout;fillColor=#d5e8d4;strokeColor=#82b366;shadow=1;sketch=1;curveFitting=1;jiggle=2;" parent="1" vertex="1">
          <mxGeometry x="320" y="229.99999999999997" width="139.00000000000045" height="110" as="geometry" />
        </mxCell>
        <mxCell id="A6qeI73UASJIK5Bc831--137" value="" style="shape=tableRow;horizontal=0;startSize=0;swimlaneHead=0;swimlaneBody=0;strokeColor=inherit;top=0;left=0;bottom=0;right=0;collapsible=0;dropTarget=0;fillColor=none;points=[[0,0.5],[1,0.5]];portConstraint=eastwest;" parent="A6qeI73UASJIK5Bc831--136" vertex="1">
          <mxGeometry y="30" width="139.00000000000045" height="40" as="geometry" />
        </mxCell>
        <mxCell id="A6qeI73UASJIK5Bc831--138" value="varchrm" style="shape=partialRectangle;html=1;whiteSpace=wrap;connectable=0;strokeColor=inherit;overflow=hidden;fillColor=none;top=0;left=0;bottom=0;right=0;pointerEvents=1;" parent="A6qeI73UASJIK5Bc831--137" vertex="1">
          <mxGeometry width="60" height="40" as="geometry">
            <mxRectangle width="60" height="40" as="alternateBounds" />
          </mxGeometry>
        </mxCell>
        <mxCell id="A6qeI73UASJIK5Bc831--139" value="link" style="shape=partialRectangle;html=1;whiteSpace=wrap;connectable=0;strokeColor=inherit;overflow=hidden;fillColor=none;top=0;left=0;bottom=0;right=0;pointerEvents=1;" parent="A6qeI73UASJIK5Bc831--137" vertex="1">
          <mxGeometry x="60" width="79" height="40" as="geometry">
            <mxRectangle width="79" height="40" as="alternateBounds" />
          </mxGeometry>
        </mxCell>
        <mxCell id="A6qeI73UASJIK5Bc831--143" value="" style="shape=tableRow;horizontal=0;startSize=0;swimlaneHead=0;swimlaneBody=0;strokeColor=inherit;top=0;left=0;bottom=0;right=0;collapsible=0;dropTarget=0;fillColor=none;points=[[0,0.5],[1,0.5]];portConstraint=eastwest;" parent="A6qeI73UASJIK5Bc831--136" vertex="1">
          <mxGeometry y="70" width="139.00000000000045" height="40" as="geometry" />
        </mxCell>
        <mxCell id="A6qeI73UASJIK5Bc831--144" value="integer" style="shape=partialRectangle;html=1;whiteSpace=wrap;connectable=0;strokeColor=inherit;overflow=hidden;fillColor=none;top=0;left=0;bottom=0;right=0;pointerEvents=1;" parent="A6qeI73UASJIK5Bc831--143" vertex="1">
          <mxGeometry width="60" height="40" as="geometry">
            <mxRectangle width="60" height="40" as="alternateBounds" />
          </mxGeometry>
        </mxCell>
        <mxCell id="A6qeI73UASJIK5Bc831--145" value="size_file" style="shape=partialRectangle;html=1;whiteSpace=wrap;connectable=0;strokeColor=inherit;overflow=hidden;fillColor=none;top=0;left=0;bottom=0;right=0;pointerEvents=1;" parent="A6qeI73UASJIK5Bc831--143" vertex="1">
          <mxGeometry x="60" width="79" height="40" as="geometry">
            <mxRectangle width="79" height="40" as="alternateBounds" />
          </mxGeometry>
        </mxCell>
        <mxCell id="WCEEy9OTSrLAwlzTOgqZ-56" value="&lt;p style=&quot;line-height: 120%;&quot;&gt;&lt;i&gt;poetry comment&lt;/i&gt;&lt;/p&gt;" style="ellipse;shape=cloud;whiteSpace=wrap;html=1;shadow=1;strokeColor=#A8A4A4;fillColor=default;fillStyle=auto;" parent="1" vertex="1">
          <mxGeometry x="360" y="160" width="126.5" height="47.16" as="geometry" />
        </mxCell>
        <mxCell id="XU9lX5efspehuS8-98To-5" value="&lt;font style=&quot;font-size: 10px;&quot;&gt;message&#39;s autor&amp;nbsp;&lt;/font&gt;" style="text;html=1;align=center;verticalAlign=middle;whiteSpace=wrap;rounded=0;" parent="1" vertex="1">
          <mxGeometry x="120" y="250" width="100" height="30" as="geometry" />
        </mxCell>
      </root>
    </mxGraphModel>
  </diagram>
</mxfile>
